<svg width="888" height="888" viewBox="0 0 888 888" fill="none" xmlns="http://www.w3.org/2000/svg">
<rect width="888" height="888" rx="190" fill="#CEEBDF"/>
<path fill-rule="evenodd" clip-rule="evenodd" d="M443.502 150C281.424 150 150 281.352 150 443.34C150 605.329 281.424 736.857 443.502 736.857C513.619 736.857 578.097 712.382 628.659 671.181L676.754 727.173C691.024 743.548 720.092 740.906 731.719 722.242C740.704 708.861 740.88 690.021 726.786 676.287L670.588 629.627C712.164 578.918 737.357 513.946 737.357 443.34C737.357 281.352 605.933 150 443.502 150ZM582.326 617.654C582.326 617.302 582.326 617.302 582.326 616.598C582.326 616.069 581.973 615.541 580.916 615.541C580.74 615.541 580.74 615.541 580.388 615.541C550.438 629.099 502.167 613.957 475.213 586.665C441.388 552.683 412.848 474.153 443.502 443.516C474.156 413.232 556.076 445.629 586.554 476.266C616.327 506.727 628.306 551.978 614.565 582.087C614.565 582.087 614.565 582.263 614.565 582.615C614.565 583.32 615.094 583.848 615.622 583.848C616.151 583.848 616.327 583.672 616.327 583.32C647.509 545.111 666.36 496.515 666.36 443.34C666.36 320.264 566.646 220.958 443.502 220.958C320.71 220.958 220.997 320.264 220.997 443.34C220.997 566.064 320.71 665.723 443.502 665.723C495.825 665.723 544.096 647.763 582.326 617.654Z" fill="#139460"/>
<rect x="95" y="95" width="267" height="146" rx="35" fill="#FF0000"/>
<path d="M156.364 203H129.5V133.182H156.091C163.273 133.182 169.477 134.58 174.705 137.375C179.955 140.148 184 144.148 186.841 149.375C189.705 154.58 191.136 160.818 191.136 168.091C191.136 175.364 189.716 181.614 186.875 186.841C184.034 192.045 180.011 196.045 174.807 198.841C169.602 201.614 163.455 203 156.364 203ZM148.455 186.909H155.682C159.136 186.909 162.08 186.352 164.511 185.239C166.966 184.125 168.83 182.205 170.102 179.477C171.398 176.75 172.045 172.955 172.045 168.091C172.045 163.227 171.386 159.432 170.068 156.705C168.773 153.977 166.864 152.057 164.341 150.943C161.841 149.83 158.773 149.273 155.136 149.273H148.455V186.909ZM199.906 203V133.182H250.224V148.455H218.861V160.455H247.634V175.727H218.861V187.727H250.088V203H199.906ZM278.716 133.182L293.034 182.409H293.58L307.898 133.182H329.307L306.261 203H280.352L257.307 133.182H278.716Z" fill="white"/>
</svg>
